<svg xmlns="http://www.w3.org/2000/svg" height="54" width="100" class="atds-svg">
  <g clip-path="url(#clip0_943_79569)" fill-rule="evenodd" clip-rule="evenodd">
    <path d="M4.789 49.435a44 44 0 0 1 7.66-24.943l-3.56-2.627C3.257 30.112.163 39.88 0 49.925l4.796-.009c-.002-.16-.007-.32-.007-.48" fill="#a9dfbf"/>
    <path d="m34.872 7.307-1.436-4.473c-9.389 3.34-17.496 9.457-23.377 17.384l3.566 2.63A45.2 45.2 0 0 1 34.872 7.306" fill="#229954"/>
    <path d="M49.812 4.77a45.6 45.6 0 0 1 13.044 1.871l1.424-4.493A49 49 0 0 0 49.804 0c-5.034.01-9.89.78-14.47 2.2l1.441 4.49a45.6 45.6 0 0 1 13.037-1.92" fill="#196f3d"/>
    <path d="m86.063 22.712 3.556-2.642C83.71 12.162 75.58 6.078 66.18 2.77l-1.42 4.48a45.2 45.2 0 0 1 21.303 15.46z" fill="#FBBA00"/>
    <path d="M94.996 49.265q-.002.241-.006.481l4.796-.009c-.2-10.044-3.329-19.8-8.99-28.025l-3.55 2.64a44 44 0 0 1 7.75 24.913" fill="#FF9A7A"/>
    <path d="M53.31 44.041 49.923 7.217c-.02-.214-.327-.218-.358-.003L44.185 44a7.4 7.4 0 0 0-.26 1.694l-.007.056h.006c-.089 3.267 1.98 5.935 4.621 5.96 2.64.022 4.853-2.606 4.942-5.874a7.2 7.2 0 0 0-.177-1.795" fill="#999"/>
  </g>
</svg>
