<svg xmlns="http://www.w3.org/2000/svg" height="54" width="100" class="atds-svg">
  <g clip-path="url(#clip0_943_79589)" fill-rule="evenodd" clip-rule="evenodd">
    <path d="M4.789 49.433a44 44 0 0 1 7.66-24.943l-3.56-2.627C3.257 30.11.163 39.878 0 49.923l4.796-.01c-.002-.16-.007-.32-.007-.48" fill="#a9dfbf"/>
    <path d="m34.872 7.308-1.436-4.473c-9.389 3.34-17.496 9.457-23.377 17.384l3.566 2.63A45.2 45.2 0 0 1 34.872 7.307" fill="#229954"/>
    <path d="M49.812 4.77a45.6 45.6 0 0 1 13.044 1.871l1.424-4.493A49 49 0 0 0 49.804 0c-5.034.01-9.89.78-14.47 2.2l1.441 4.49a45.6 45.6 0 0 1 13.037-1.92" fill="#196f3d"/>
    <path d="m86.063 22.712 3.556-2.642C83.71 12.162 75.58 6.078 66.18 2.77l-1.42 4.48a45.2 45.2 0 0 1 21.303 15.46z" fill="#FBBA00"/>
    <path d="M94.996 49.265q-.002.241-.006.481l4.796-.009c-.2-10.044-3.329-19.8-8.99-28.025l-3.55 2.64a44 44 0 0 1 7.75 24.913" fill="#FF9A7A"/>
    <path d="m52.148 43.913 36.564-5.522c.213-.032.29.265.09.347l-34.43 14.026a7.4 7.4 0 0 1-1.584.657l-.052.02-.002-.006c-3.15.868-6.236-.503-6.891-3.06-.654-2.56 1.368-5.336 4.52-6.204a7.2 7.2 0 0 1 1.785-.258" fill="#999"/>
  </g>
</svg>
